<svg width="844" height="907" xmlns="http://www.w3.org/2000/svg" xmlns:xlink="http://www.w3.org/1999/xlink" xml:space="preserve" overflow="hidden"><defs><filter id="fx0" x="-10%" y="-10%" width="120%" height="120%" filterUnits="userSpaceOnUse" primitiveUnits="userSpaceOnUse"><feComponentTransfer color-interpolation-filters="sRGB"><feFuncR type="discrete" tableValues="0.000000 0.000000"/><feFuncG type="discrete" tableValues="0.000000 0.000000"/><feFuncB type="discrete" tableValues="0.000000 0.000000"/><feFuncA type="linear" slope="0.400000" intercept="0.000000"/></feComponentTransfer><feGaussianBlur stdDeviation="6.111111 6.111111"/></filter><filter id="fx1" x="-10%" y="-10%" width="120%" height="120%" filterUnits="userSpaceOnUse" primitiveUnits="userSpaceOnUse"><feComponentTransfer color-interpolation-filters="sRGB"><feFuncR type="discrete" tableValues="0.000000 0.000000"/><feFuncG type="discrete" tableValues="0.000000 0.000000"/><feFuncB type="discrete" tableValues="0.000000 0.000000"/><feFuncA type="linear" slope="0.400000" intercept="0.000000"/></feComponentTransfer><feGaussianBlur stdDeviation="6.111111 6.111111"/></filter><filter id="fx2" x="-10%" y="-10%" width="120%" height="120%" filterUnits="userSpaceOnUse" primitiveUnits="userSpaceOnUse"><feComponentTransfer color-interpolation-filters="sRGB"><feFuncR type="discrete" tableValues="0.000000 0.000000"/><feFuncG type="discrete" tableValues="0.000000 0.000000"/><feFuncB type="discrete" tableValues="0.000000 0.000000"/><feFuncA type="linear" slope="0.400000" intercept="0.000000"/></feComponentTransfer><feGaussianBlur stdDeviation="6.111111 6.111111"/></filter><filter id="fx3" x="-10%" y="-10%" width="120%" height="120%" filterUnits="userSpaceOnUse" primitiveUnits="userSpaceOnUse"><feComponentTransfer color-interpolation-filters="sRGB"><feFuncR type="discrete" tableValues="0.000000 0.000000"/><feFuncG type="discrete" tableValues="0.000000 0.000000"/><feFuncB type="discrete" tableValues="0.000000 0.000000"/><feFuncA type="linear" slope="0.400000" intercept="0.000000"/></feComponentTransfer><feGaussianBlur stdDeviation="6.111111 6.111111"/></filter><clipPath id="clip4"><rect x="1.3894" y="1.38947" width="395.667" height="423.666"/></clipPath><clipPath id="clip5"><rect x="1.3894" y="1.38947" width="395.667" height="423.666"/></clipPath><clipPath id="clip6"><rect x="1.3894" y="1.38928" width="395.667" height="423.667"/></clipPath><clipPath id="clip7"><rect x="1.3894" y="1.38928" width="395.667" height="423.667"/></clipPath></defs><g transform="translate(-2181 -733)"><g><g clip-path="url(#clip4)" filter="url(#fx0)" transform="translate(2185 736)"><g><g><path d="M24.7227 82.8906C24.7227 50.7654 50.7653 24.7228 82.8905 24.7228L315.555 24.7228C347.68 24.7228 373.723 50.7654 373.723 82.8906L373.723 343.555C373.723 375.68 347.68 401.723 315.555 401.723L82.8905 401.723C50.7653 401.723 24.7227 375.68 24.7227 343.555Z" stroke="#000000" stroke-width="10" stroke-linecap="butt" stroke-linejoin="round" stroke-miterlimit="10" stroke-opacity="1" fill="none" fill-rule="evenodd"/></g></g></g><path d="M2200 809.168C2200 777.043 2226.04 751 2258.17 751L2490.83 751C2522.96 751 2549 777.043 2549 809.168L2549 1069.83C2549 1101.96 2522.96 1128 2490.83 1128L2258.17 1128C2226.04 1128 2200 1101.96 2200 1069.83Z" stroke="#000000" stroke-width="10.3125" stroke-linecap="butt" stroke-linejoin="round" stroke-miterlimit="10" stroke-opacity="1" fill="none" fill-rule="evenodd"/><g clip-path="url(#clip5)" filter="url(#fx1)" transform="translate(2624 736)"><g><g><path d="M24.7227 82.8906C24.7227 50.7654 50.7653 24.7228 82.8905 24.7228L315.555 24.7228C347.68 24.7228 373.723 50.7654 373.723 82.8906L373.723 343.555C373.723 375.68 347.68 401.723 315.555 401.723L82.8905 401.723C50.7653 401.723 24.7227 375.68 24.7227 343.555Z" stroke="#000000" stroke-width="10" stroke-linecap="butt" stroke-linejoin="round" stroke-miterlimit="10" stroke-opacity="1" fill="none" fill-rule="evenodd"/></g></g></g><path d="M2639 809.168C2639 777.043 2665.04 751 2697.17 751L2929.83 751C2961.96 751 2988 777.043 2988 809.168L2988 1069.83C2988 1101.96 2961.96 1128 2929.83 1128L2697.17 1128C2665.04 1128 2639 1101.96 2639 1069.83Z" stroke="#000000" stroke-width="10.3125" stroke-linecap="butt" stroke-linejoin="round" stroke-miterlimit="10" stroke-opacity="1" fill="none" fill-rule="evenodd"/><g clip-path="url(#clip6)" filter="url(#fx2)" transform="translate(2185 1213)"><g><g><path d="M24.7227 82.8904C24.7227 50.7652 50.7653 24.7225 82.8905 24.7225L315.555 24.7225C347.68 24.7225 373.723 50.7652 373.723 82.8904L373.723 343.555C373.723 375.68 347.68 401.723 315.555 401.723L82.8905 401.723C50.7653 401.723 24.7227 375.68 24.7227 343.555Z" stroke="#000000" stroke-width="10" stroke-linecap="butt" stroke-linejoin="round" stroke-miterlimit="10" stroke-opacity="1" fill="none" fill-rule="evenodd"/></g></g></g><path d="M2200 1286.17C2200 1254.04 2226.04 1228 2258.17 1228L2490.83 1228C2522.96 1228 2549 1254.04 2549 1286.17L2549 1546.83C2549 1578.96 2522.96 1605 2490.83 1605L2258.17 1605C2226.04 1605 2200 1578.96 2200 1546.83Z" stroke="#000000" stroke-width="10.3125" stroke-linecap="butt" stroke-linejoin="round" stroke-miterlimit="10" stroke-opacity="1" fill="none" fill-rule="evenodd"/><g clip-path="url(#clip7)" filter="url(#fx3)" transform="translate(2624 1213)"><g><g><path d="M24.7227 82.8904C24.7227 50.7652 50.7653 24.7225 82.8905 24.7225L315.555 24.7225C347.68 24.7225 373.723 50.7652 373.723 82.8904L373.723 343.555C373.723 375.68 347.68 401.723 315.555 401.723L82.8905 401.723C50.7653 401.723 24.7227 375.68 24.7227 343.555Z" stroke="#000000" stroke-width="10" stroke-linecap="butt" stroke-linejoin="round" stroke-miterlimit="10" stroke-opacity="1" fill="none" fill-rule="evenodd"/></g></g></g><path d="M2639 1286.17C2639 1254.04 2665.04 1228 2697.17 1228L2929.83 1228C2961.96 1228 2988 1254.04 2988 1286.17L2988 1546.83C2988 1578.96 2961.96 1605 2929.83 1605L2697.17 1605C2665.04 1605 2639 1578.96 2639 1546.83Z" stroke="#000000" stroke-width="10.3125" stroke-linecap="butt" stroke-linejoin="round" stroke-miterlimit="10" stroke-opacity="1" fill="none" fill-rule="evenodd"/></g></g></svg>